<?xml version="1.0" standalone="no"?>
<!DOCTYPE svg PUBLIC "-//W3C//DTD SVG 20010904//EN"
 "http://www.w3.org/TR/2001/REC-SVG-20010904/DTD/svg10.dtd">
<svg version="1.0" xmlns="http://www.w3.org/2000/svg"
 width="1500.000000pt" height="1500.000000pt" viewBox="0 0 1500.000000 1500.000000"
 preserveAspectRatio="xMidYMid meet">
<metadata>
Created by potrace 1.14, written by Peter Selinger 2001-2017
</metadata>
<g transform="translate(0.000000,1500.000000) scale(0.100000,-0.100000)"
fill="#000000" stroke="none">
<path d="M880 8930 c0 -19 -7 -20 -105 -20 -102 0 -105 -1 -140 -31 -19 -17
-35 -36 -35 -43 0 -6 -27 -26 -59 -44 -136 -78 -260 -226 -319 -379 -26 -69
-47 -165 -55 -258 -2 -26 -8 -31 -49 -43 l-48 -13 0 -115 c0 -113 0 -114 24
-114 l23 0 -23 -47 c-29 -55 -30 -104 -5 -158 23 -52 71 -93 127 -107 38 -11
45 -17 60 -57 33 -89 127 -264 183 -339 32 -43 87 -105 124 -138 37 -34 67
-68 67 -76 0 -8 -96 -60 -248 -133 -145 -71 -263 -134 -285 -154 -21 -19 -51
-58 -65 -85 -27 -51 -27 -53 -30 -293 l-4 -243 911 0 911 0 0 238 0 239 -31
61 c-17 35 -46 74 -68 91 -20 16 -146 82 -279 147 -146 71 -242 123 -242 131
0 8 37 51 83 96 113 111 206 259 282 445 20 50 26 55 74 71 28 10 61 27 72 37
59 53 77 165 39 237 l-20 37 25 0 25 0 0 114 0 114 -49 13 -50 12 -6 66 c-8
79 -47 226 -76 284 -59 116 -175 243 -284 310 -34 21 -69 51 -79 67 -28 48
-62 60 -176 60 -93 0 -100 1 -100 20 0 17 -7 20 -50 20 -43 0 -50 -3 -50 -20z
m0 -385 l0 -265 50 0 50 0 0 265 0 265 94 0 c76 0 95 -3 100 -16 3 -9 6 -94 6
-190 l0 -174 50 0 50 0 0 136 0 135 31 -18 c17 -10 64 -52 103 -95 117 -123
168 -247 182 -440 l7 -98 46 -13 c39 -11 46 -17 49 -40 l3 -27 -766 0 -766 0
3 27 c2 22 11 28 51 40 l47 14 0 77 c1 199 91 393 239 516 85 71 81 75 81 -79
l0 -135 50 0 50 0 0 183 c0 101 3 187 7 190 3 4 46 7 95 7 l88 0 0 -265z m690
-707 c-1 -105 -54 -277 -135 -438 -149 -299 -366 -460 -563 -419 -196 40 -367
226 -496 541 -36 87 -69 211 -80 301 l-6 47 640 0 640 0 0 -32z m-1351 -173
c0 -5 -11 3 -24 18 -27 31 -32 66 -13 100 11 20 13 16 24 -43 7 -36 13 -69 13
-75z m1471 74 c0 -23 -8 -46 -20 -60 l-21 -24 6 55 c4 30 9 63 12 74 8 28 23
-1 23 -45z m-876 -844 c27 -8 81 -15 121 -15 40 0 94 7 121 15 27 8 52 15 55
15 11 0 -10 -89 -27 -115 -32 -49 -78 -68 -153 -63 -56 3 -75 9 -105 31 -39
30 -60 63 -71 115 -8 37 -7 37 59 17z m-138 -106 c24 -48 94 -118 138 -141
130 -66 312 -4 376 127 12 25 24 45 26 45 2 0 109 -51 238 -114 302 -147 286
-126 286 -384 l0 -182 -100 0 -100 0 0 35 0 35 -50 0 -50 0 0 -35 0 -35 -504
0 -505 0 -3 33 c-3 31 -4 32 -53 32 -49 0 -50 -1 -53 -32 l-3 -33 -100 0 -99
0 0 163 c0 89 5 179 11 200 19 70 59 99 294 212 121 58 223 105 227 105 4 0
15 -14 24 -31z"/>
<path d="M430 8090 l0 -50 506 0 505 0 -3 48 -3 47 -502 3 -503 2 0 -50z"/>
<path d="M3151 8718 c57 -144 292 -755 296 -770 5 -15 -6 -18 -102 -20 l-107
-3 -39 -109 c-21 -60 -39 -115 -39 -122 0 -11 43 -14 197 -16 l197 -3 25 -62
24 -63 209 0 c116 0 208 4 206 9 -1 4 -111 279 -243 610 l-239 601 -203 0
-203 0 21 -52z"/>
<path d="M4232 8647 l-122 -122 0 -135 0 -135 128 -128 127 -127 258 0 257 0
0 -225 0 -225 88 0 88 0 122 123 122 124 0 148 0 148 -122 124 -122 123 -278
0 -278 0 0 215 0 215 -73 0 -72 0 -123 -123z"/>
<path d="M4560 8660 l0 -110 160 0 159 0 3 -62 3 -63 188 -3 187 -2 0 72 0 73
-102 102 -103 103 -247 0 -248 0 0 -110z"/>
<path d="M5587 8652 l-117 -117 0 -145 0 -145 123 -123 122 -122 263 0 262 0
0 -225 0 -225 83 0 82 0 123 123 122 122 0 149 0 148 -116 124 -117 124 -278
0 -279 0 0 215 0 215 -78 0 -77 0 -118 -118z"/>
<path d="M5910 8660 l0 -110 165 0 165 0 0 -65 0 -65 188 2 187 3 3 64 3 65
-108 108 -108 108 -247 0 -248 0 0 -110z"/>
<path d="M6830 8282 l0 -487 123 -123 122 -122 158 0 157 0 0 125 0 125 -75 0
-75 0 0 485 0 485 -205 0 -205 0 0 -488z"/>
<path d="M7600 8285 l0 -485 -75 0 -75 0 0 -125 0 -125 162 0 163 0 117 117
118 118 0 492 0 493 -205 0 -205 0 0 -485z"/>
<path d="M8210 8160 l0 -610 208 2 207 3 0 605 0 605 -207 3 -208 2 0 -610z"/>
<path d="M8680 8645 l0 -125 150 0 150 0 0 -360 0 -360 -150 0 -150 0 0 -125
0 -125 238 0 237 0 123 123 122 122 0 365 0 365 -123 123 -122 122 -238 0
-237 0 0 -125z"/>
<path d="M9960 8762 c0 -4 71 -192 159 -417 l158 -410 -107 -3 -108 -3 -41
-115 c-22 -64 -41 -120 -41 -125 0 -5 89 -9 199 -9 l199 0 23 -65 23 -65 208
0 c114 0 208 2 208 6 0 3 -108 277 -241 610 l-240 604 -200 0 c-109 0 -199 -3
-199 -8z"/>
<path d="M10930 8640 l0 -130 60 0 60 0 0 -345 0 -344 -57 -3 -58 -3 -3 -132
-3 -133 331 0 331 0 -3 133 -3 132 -57 3 -58 3 0 344 0 345 60 0 60 0 0 130 0
130 -330 0 -330 0 0 -130z"/>
<path d="M11882 8647 l-122 -122 0 -135 0 -135 128 -128 127 -127 258 0 257 0
0 -225 0 -225 88 0 87 0 123 123 122 122 0 149 0 149 -122 124 -122 123 -278
0 -278 0 0 215 0 215 -73 0 -72 0 -123 -123z"/>
<path d="M12210 8660 l0 -110 160 0 159 0 3 -62 3 -63 188 -3 187 -2 0 72 0
73 -102 102 -103 103 -247 0 -248 0 0 -110z"/>
<path d="M13010 8763 c0 -5 92 -194 205 -422 l205 -413 0 -189 0 -189 205 0
205 0 0 183 -1 182 -208 425 -208 425 -202 3 c-110 1 -201 -1 -201 -5z"/>
<path d="M13796 8668 c-30 -57 -75 -141 -99 -187 l-45 -83 96 -199 c53 -110
100 -198 104 -197 5 2 97 175 204 386 l195 382 -200 0 -200 0 -55 -102z"/>
<path d="M3038 8582 c-26 -70 -124 -331 -216 -580 l-170 -452 201 2 201 3 108
325 c58 179 107 334 107 345 1 23 -168 485 -178 485 -3 0 -27 -58 -53 -128z"/>
<path d="M9902 8689 c-98 -257 -422 -1128 -422 -1133 0 -3 89 -6 198 -6 l198
0 111 341 112 341 -86 231 c-47 128 -90 236 -94 241 -5 5 -12 -1 -17 -15z"/>
<path d="M4110 7857 l0 -63 102 -122 103 -122 252 0 253 0 0 115 0 115 -150 0
-150 0 0 70 0 70 -205 0 -205 0 0 -63z"/>
<path d="M5470 7853 l1 -68 100 -117 100 -118 255 0 255 0 -3 113 -3 112 -147
3 -148 3 0 69 0 70 -205 0 -205 0 0 -67z"/>
<path d="M11760 7857 l0 -62 102 -123 103 -122 258 0 258 0 -3 113 -3 112
-152 3 -153 3 0 69 0 70 -205 0 -205 0 0 -63z"/>
<path d="M2120 6830 l0 -610 210 0 210 0 0 610 0 610 -210 0 -210 0 0 -610z"/>
<path d="M2733 7212 l-143 -227 0 -292 c0 -161 3 -293 8 -293 6 1 692 1009
700 1032 2 4 -92 8 -210 8 l-213 -1 -142 -227z"/>
<path d="M3472 7317 l-122 -122 0 -365 0 -365 123 -123 122 -122 163 0 162 0
0 125 0 125 -75 0 -75 0 0 360 0 360 75 0 75 0 0 125 0 125 -163 0 -162 0
-123 -123z"/>
<path d="M3974 7427 c-2 -7 -3 -62 -2 -123 l3 -109 78 -3 77 -3 0 -359 0 -359
-77 -3 -78 -3 -3 -122 -3 -123 163 0 163 0 123 123 122 122 0 365 0 365 -123
123 -122 122 -158 0 c-121 0 -159 -3 -163 -13z"/>
<path d="M4730 7433 c0 -5 164 -278 364 -608 l364 -600 221 -3 221 -2 -93 152
c-51 84 -218 359 -371 611 l-278 457 -214 0 c-118 0 -214 -3 -214 -7z"/>
<path d="M5540 7178 l0 -263 170 -279 c93 -154 174 -284 180 -290 7 -7 10 166
10 542 l0 552 -180 0 -180 0 0 -262z"/>
<path d="M6050 7305 l0 -135 530 0 530 0 0 135 0 135 -530 0 -530 0 0 -135z"/>
<path d="M7260 6830 l0 -610 205 0 205 0 0 610 0 610 -205 0 -205 0 0 -610z"/>
<path d="M7730 7315 l0 -125 150 0 150 0 0 -180 0 -179 -147 -3 -148 -3 -3
-122 -3 -123 73 0 73 0 85 -180 84 -180 218 0 c120 0 218 2 218 5 0 3 -50 98
-111 211 l-112 206 92 92 91 91 0 189 0 188 -122 118 -123 119 -232 1 -233 0
0 -125z m513 -662 c4 -4 -5 -19 -20 -35 l-27 -28 -163 0 c-130 0 -163 3 -163
13 0 20 356 68 373 50z"/>
<path d="M9161 7029 c88 -226 162 -415 164 -420 3 -4 -44 -10 -106 -11 l-112
-3 -38 -110 c-21 -60 -38 -116 -39 -122 0 -10 46 -13 198 -13 l198 0 23 -65
23 -65 210 0 c123 0 208 4 206 9 -1 5 -111 280 -243 610 l-240 601 -201 0
-202 0 159 -411z"/>
<path d="M10000 6830 l0 -610 205 0 205 0 0 610 0 610 -205 0 -205 0 0 -610z"/>
<path d="M10611 7215 l-141 -226 0 -296 c0 -253 2 -295 14 -283 11 12 663 973
689 1017 7 11 -31 13 -206 13 l-214 0 -142 -225z"/>
<path d="M11200 7305 l0 -135 530 0 530 0 0 135 0 135 -530 0 -530 0 0 -135z"/>
<path d="M12502 7317 l-122 -122 0 -365 0 -365 123 -123 122 -122 163 0 162 0
0 125 0 125 -80 0 -80 0 0 360 0 360 80 0 80 0 0 125 0 125 -163 0 -162 0
-123 -123z"/>
<path d="M13000 7315 l0 -125 80 0 80 0 0 -360 0 -360 -80 0 -80 0 0 -125 0
-125 163 0 162 0 123 123 122 122 0 365 0 365 -123 123 -122 122 -163 0 -162
0 0 -125z"/>
<path d="M13750 6830 l0 -610 205 0 205 0 0 610 0 610 -205 0 -205 0 0 -610z"/>
<path d="M14220 7315 l0 -125 155 0 155 0 0 -180 0 -179 -152 -3 -153 -3 -3
-122 -3 -123 74 0 73 0 86 -180 86 -180 217 0 c203 0 217 1 210 18 -3 9 -54
104 -111 211 l-106 194 96 96 96 96 0 179 0 179 -122 124 -122 123 -238 0
-238 0 0 -125z m520 -663 c0 -5 -13 -20 -28 -35 l-29 -28 -158 3 c-102 2 -160
7 -162 14 -2 7 53 18 149 31 172 23 228 27 228 15z"/>
<path d="M8956 7372 c-9 -14 -426 -1134 -426 -1144 0 -5 89 -7 197 -6 l197 3
108 330 c59 182 108 337 108 345 0 14 -167 470 -175 478 -2 2 -6 -1 -9 -6z"/>
<path d="M4720 6772 l0 -552 180 0 180 0 0 264 0 265 -166 273 c-91 150 -172
280 -180 288 -12 12 -14 -66 -14 -538z"/>
<path d="M6360 6665 l0 -445 215 0 215 0 0 445 0 445 -215 0 -215 0 0 -445z"/>
<path d="M11510 6665 l0 -445 215 0 215 0 0 445 0 445 -215 0 -215 0 0 -445z"/>
<path d="M2875 6709 c-55 -83 -108 -164 -118 -179 -17 -27 -17 -27 53 -169
l70 -141 221 0 c173 0 220 3 216 13 -18 45 -326 622 -333 624 -5 1 -54 -65
-109 -148z"/>
<path d="M10736 6684 c-110 -165 -117 -178 -106 -203 6 -14 37 -79 67 -143
l56 -118 224 0 225 0 -65 123 c-35 67 -111 211 -167 320 -56 108 -106 197
-110 197 -4 0 -60 -79 -124 -176z"/>
</g>
</svg>
