<svg xmlns="http://www.w3.org/2000/svg" version="1.1" xmlns:xlink="http://www.w3.org/1999/xlink" xmlns:svgjs="http://svgjs.dev/svgjs" width="1500" height="1500" viewBox="0 0 1500 1500"><rect width="1500" height="1500" fill="#ffffff"></rect><g transform="matrix(0.6666666666666666,0,0,0.6666666666666666,249.39393939393943,652.8406520016309)"><svg viewBox="0 0 396 77" data-background-color="#ffffff" preserveAspectRatio="xMidYMid meet" height="291" width="1500" xmlns="http://www.w3.org/2000/svg" xmlns:xlink="http://www.w3.org/1999/xlink"><g id="tight-bounds" transform="matrix(1,0,0,1,0.2400000000000091,0.06324637048669501)"><svg viewBox="0 0 395.52 76.87350725902664" height="76.87350725902664" width="395.52"><g><svg viewBox="0 0 460.18171249585413 89.44119694584687" height="76.87350725902664" width="395.52"><g transform="matrix(1,0,0,1,64.66171249585416,3.75941721578058)"><svg viewBox="0 0 395.52 81.92236251428571" height="81.92236251428571" width="395.52"><g id="textblocktransform"><svg viewBox="0 0 395.52 81.92236251428571" height="81.92236251428571" width="395.52" id="textblock"><g><svg viewBox="0 0 395.52 81.92236251428571" height="81.92236251428571" width="395.52"><g transform="matrix(1,0,0,1,0,0)"><svg width="395.52" viewBox="173.76000000000002 -32.400000000000006 341.78999999999996 67.80000000000001" height="81.92236251428571" data-palette-color="#000000"><svg></svg><svg></svg><g class="wordmark-text-0" data-fill-palette-color="primary" id="text-0"><path transform="translate(187.65,0)" d="M25.49 0l-1.37-3.54h-10.59l2.24-6.42h5.86l-8.67-22.44h10.53l12.91 32.4zM16.58-18.07l-5.94 18.07h-10.42l11.57-30.93zM63.84 0h-4.34v-12.13h-14.02l-6.49-6.5v-7.3l6.49-6.47h3.67v11.5h14.89l6.27 6.5v7.93zM59.5-26.56h-8.65v-5.84h12.97l5.61 5.64v3.44h-9.93zM38.99-6.47v-3.25h10.79v3.86h8.01v5.86h-13.36zM99.9 0h-4.34v-12.13h-14.02l-6.49-6.5v-7.3l6.49-6.47h3.67v11.5h14.89l6.27 6.5v7.93zM95.56-26.56h-8.65v-5.84h12.97l5.61 5.64v3.44h-9.93zM75.05-6.47v-3.25h10.79v3.86h8.01v5.86h-13.36zM142.63-32.4v25.93l-6.47 6.47h-8.33v-6.47h4.01v-25.93zM122.14-32.4v25.93h3.98v6.47h-8.3l-6.49-6.47v-25.93zM172.92 0h-12.32v-6.47h8v-19.46h-8v-6.47h12.32l6.5 6.47v19.46zM148.1 0v-32.4h10.79v32.4zM207.01 0l-1.37-3.54h-10.6l2.25-6.42h5.86l-8.67-22.44h10.52l12.92 32.4zM198.1-18.07l-5.94 18.07h-10.42l11.57-30.93zM220.51 0v-6.91h3.24v-18.6h-3.24v-6.89h17.28v6.89h-3.24v18.6h3.24v6.91zM267.38 0h-4.34v-12.13h-14.02l-6.49-6.5v-7.3l6.49-6.47h3.67v11.5h14.89l6.27 6.5v7.93zM263.04-26.56h-8.65v-5.84h12.97l5.61 5.64v3.44h-9.93zM242.53-6.47v-3.25h10.79v3.86h8.01v5.86h-13.36zM286.57 0v-10.3l-10.98-22.1h10.59l11.21 22.85v9.55zM308.52-32.4l-10.45 20.58-5.25-10.64 5.32-9.94z" fill="#000000" fill-rule="nonzero" stroke="none" stroke-width="1" stroke-linecap="butt" stroke-linejoin="miter" stroke-miterlimit="10" stroke-dasharray="" stroke-dashoffset="0" font-family="none" font-weight="none" font-size="none" text-anchor="none" style="mix-blend-mode: normal" data-fill-palette-color="primary" opacity="1"></path><path transform="translate(170.9,35.4)" d="M13.65 0h-10.79v-32.4h10.79zM34.11-32.4l-18.8 27.81v-15.75l7.57-12.03zM25.68-17.14l8.94 17.14h-11.67l-3.66-7.54zM46.36-25.83v19.24h4.06v6.59h-8.31l-6.56-6.47v-19.46l6.56-6.47h8.31v6.57zM56.25-6.59v-19.24h-4.13v-6.57h8.38l6.54 6.47v19.46l-6.54 6.47h-8.38v-6.59zM83.42-32.4l19.71 32.4h-11.48l-19.63-32.4zM81.42 0h-9.4v-29.32l9.4 15.4zM93.73-32.4h9.4v29.32l-9.4-15.47zM115.7 0v-23.66h11.23v23.66zM107.25-25.34v-7.06h28.13v7.06zM150.29 0h-10.79v-32.4h10.79zM160.11-25.93h-8.11v-6.47h12.33l6.5 6.47v9.72l-4.99 4.98-0.34-0.68-10.13 1.34 0.39 0.85h-3.76v-6.27h8.11zM165.84-11.23l6.08 11.23h-11.52l-4.64-9.72h8.57zM198.41 0l-1.36-3.54h-10.6l2.25-6.42h5.86l-8.67-22.44h10.52l12.92 32.4zM189.5-18.07l-5.93 18.07h-10.43l11.58-30.93zM223.19 0h-10.79v-32.4h10.79zM243.65-32.4l-18.8 27.81v-15.75l7.57-12.03zM235.23-17.14l8.94 17.14h-11.67l-3.67-7.54zM252.71 0v-23.66h11.23v23.66zM244.26-25.34v-7.06h28.13v7.06zM286.57-25.83v19.24h4.06v6.59h-8.31l-6.56-6.47v-19.46l6.56-6.47h8.31v6.57zM296.46-6.59v-19.24h-4.13v-6.57h8.38l6.54 6.47v19.46l-6.54 6.47h-8.38v-6.59zM323.02 0h-10.79v-32.4h10.79zM332.84-25.93h-8.11v-6.47h12.33l6.49 6.47v9.72l-4.98 4.98-0.34-0.68-10.13 1.34 0.39 0.85h-3.76v-6.27h8.11zM338.57-11.23l6.08 11.23h-11.52l-4.64-9.72h8.57z" fill="#636365" fill-rule="nonzero" stroke="none" stroke-width="1" stroke-linecap="butt" stroke-linejoin="miter" stroke-miterlimit="10" stroke-dasharray="" stroke-dashoffset="0" font-family="none" font-weight="none" font-size="none" text-anchor="none" style="mix-blend-mode: normal" data-fill-palette-color="secondary" opacity="1"></path></g></svg></g></svg></g></svg></g></svg></g><g><svg viewBox="0 0 55.81130689420845 89.44119694584687" height="89.44119694584687" width="55.81130689420845"><g><svg xmlns="http://www.w3.org/2000/svg" xmlns:xlink="http://www.w3.org/1999/xlink" version="1.1" x="0" y="0" viewBox="25 1 78 125" enable-background="new 0 0 128 128" xml:space="preserve" height="89.44119694584687" width="55.81130689420845" class="icon-icon-0" data-fill-palette-color="accent" id="icon-0"><g fill="#000000" data-fill-palette-color="accent"><path d="M96.2 97.5L81 90.1 76 87.7V86.1C81.6 82.3 87.8 74.9 93 61 95.7 60.9 98 59.7 99.4 57.7 101.1 55.3 101.4 52.1 100.2 49.5 99.8 48.6 99.2 47.9 98.6 47.3H101V37.7L96.7 36.5V35.9C96.7 23.4 89.6 12.1 78.4 6.6 77.8 4.4 75.9 2.8 73.5 2.8H66V1H62V2.7H54.5C52.1 2.7 50.2 4.3 49.6 6.5 38.4 12 31.3 23.4 31.3 35.8V36.4L27 37.7V47.3H29.4C28.7 47.9 28.2 48.7 27.8 49.5 26.6 52.1 26.9 55.3 28.6 57.7 30.1 59.8 32.4 60.9 35 61 40.2 74.9 46.5 82.2 52 86.1V87.7L48.3 89.5 31.8 97.5C27.7 99.5 25 103.7 25 108.3V126H103V108.3C103 103.7 100.3 99.5 96.2 97.5M71.9 90.3C71.8 90.8 71.7 91.2 71.6 91.7V91.8C71.5 92 71.5 92.1 71.4 92.3 71.4 92.4 71.3 92.5 71.3 92.6 71.2 92.7 71.2 92.8 71.1 92.9 71 93.1 70.9 93.3 70.8 93.4V93.5C69.9 94.8 68.7 95.8 67.3 96.4H67.2C67 96.5 66.8 96.6 66.6 96.6H66.5C66.3 96.7 66.1 96.7 65.9 96.7H65.7C65.5 96.7 65.3 96.8 65.1 96.8H64.1C59.7 96.8 56.1 93.2 56.1 88.8V88.2C59.4 89.7 62.2 90 64.1 90S68.8 89.7 72.1 88.2V89C72 89.2 71.9 89.8 71.9 90.3M96.2 55.4C95.8 55.9 95.3 56.5 94.4 56.8 94.9 54.6 95.3 52.2 95.5 50 96 50.3 96.4 50.7 96.6 51.3 97.2 52.5 97.1 54.2 96.2 55.4M31 40.7L35.3 39.5V35.9C35.3 25.7 40.8 16.3 49.4 11.2V23.2H53.4V7.8C53.4 7.2 53.9 6.7 54.5 6.7H62V29.7H66V6.7H73.5C74.1 6.7 74.6 7.2 74.6 7.8V23.1H78.6V11.1C87.3 16.2 92.7 25.6 92.7 35.8V39.4L97 40.6V43.2H31zM31.8 55.4C30.9 54.2 30.8 52.5 31.4 51.3 31.7 50.8 32 50.3 32.5 50 32.7 52.5 33.2 54.7 33.7 56.8 32.8 56.5 32.2 55.9 31.8 55.4M38.3 58.4C37.4 55.1 36.5 51.6 36.3 47.3H91.7C91.6 50.5 90.9 55.3 89.8 58.3 80.8 83.4 68.8 86.1 64 86.1 59.3 86.2 47.3 83.5 38.3 58.4M99 122H90V119H86V122H42V119H38V122H29V108.3C29 105.2 30.8 102.4 33.5 101.1L52.4 92C52.4 92.1 52.5 92.2 52.5 92.3S52.6 92.6 52.6 92.7C52.7 92.9 52.8 93.2 52.9 93.4 52.9 93.5 53 93.6 53 93.7 53.1 94 53.3 94.3 53.4 94.5 53.4 94.5 53.4 94.6 53.5 94.6L54.1 95.5C54.2 95.6 54.2 95.7 54.3 95.8 54.4 96 54.6 96.2 54.8 96.4L55.1 96.7C55.2 96.9 55.4 97 55.6 97.2L55.9 97.5 56.4 98 56.7 98.3C56.9 98.5 57.1 98.6 57.3 98.8 57.4 98.9 57.5 98.9 57.5 99L58.4 99.6C58.5 99.6 58.5 99.7 58.6 99.7 58.9 99.8 59.1 100 59.4 100.1 59.5 100.2 59.6 100.2 59.8 100.2 60 100.3 60.2 100.4 60.5 100.4 60.6 100.4 60.8 100.5 60.9 100.5 61.1 100.6 61.4 100.6 61.6 100.7 61.7 100.7 61.9 100.8 62 100.8 62.2 100.8 62.5 100.9 62.8 100.9H63.2C63.6 100.9 64 101 64.3 101H65.4C65.6 101 65.8 101 65.9 100.9 66.1 100.9 66.2 100.9 66.4 100.8 66.6 100.8 66.9 100.7 67.1 100.6 67.2 100.6 67.3 100.6 67.4 100.5 67.7 100.4 67.9 100.3 68.2 100.3 68.3 100.3 68.3 100.3 68.4 100.2 68.7 100.1 69 100 69.2 99.9H69.3C69.6 99.8 69.9 99.6 70.1 99.5 70.4 99.3 70.6 99.2 70.9 99S71.4 98.7 71.6 98.5C71.6 98.5 71.7 98.5 71.7 98.4 71.9 98.2 72.1 98 72.3 97.9L72.4 97.8 72.9 97.3C73 97.2 73.1 97.1 73.1 97 73.2 96.9 73.3 96.7 73.5 96.6 73.6 96.4 73.8 96.3 73.9 96.1 74 96 74 95.9 74.1 95.9 74.9 94.8 75.5 93.5 75.8 92.1L94.6 101.2C97.4 102.5 99.1 105.4 99.1 108.4V122z" fill="#000000" data-fill-palette-color="accent"></path><rect x="42.5" y="36" width="43" height="4" fill="#000000" data-fill-palette-color="accent"></rect></g></svg></g></svg></g></svg></g><defs></defs></svg><rect width="395.52" height="76.87350725902664" fill="none" stroke="none" visibility="hidden"></rect></g></svg></g></svg>